<svg xmlns="http://www.w3.org/2000/svg" viewBox="0 0 1024 1024">
<defs>
 <radialGradient id="bg" cx=".48" cy=".42" r=".85"><stop stop-color="#341071"/><stop offset=".52" stop-color="#171044"/><stop offset="1" stop-color="#080927"/></radialGradient>
 <linearGradient id="wave" x1="0" y1="0" x2="1" y2="1"><stop stop-color="#4211a0"/><stop offset=".52" stop-color="#7118d6"/><stop offset="1" stop-color="#b126ff"/></linearGradient>
 <linearGradient id="red" x1="0" y1="0" x2="1" y2="1"><stop stop-color="#ff8a71"/><stop offset=".46" stop-color="#ff2b4c"/><stop offset="1" stop-color="#c00047"/></linearGradient>
 <linearGradient id="cream" x1="0" y1="0" x2="1" y2="1"><stop stop-color="#fffdf0"/><stop offset=".62" stop-color="#ffe6d5"/><stop offset="1" stop-color="#ddd8f2"/></linearGradient>
 <linearGradient id="orbit" x1="0" y1="0" x2="1" y2="0"><stop stop-color="#8c24ff"/><stop offset=".45" stop-color="#ff5cff"/><stop offset=".72" stop-color="#f8e8ff"/><stop offset="1" stop-color="#7040ff"/></linearGradient>
 <filter id="glow"><feGaussianBlur stdDeviation="12" result="b"/><feMerge><feMergeNode in="b"/><feMergeNode in="SourceGraphic"/></feMerge></filter>
 <filter id="shadow"><feDropShadow dx="0" dy="18" stdDeviation="17" flood-color="#000" flood-opacity=".42"/></filter>
 <clipPath id="pill"><rect x="348" y="202" width="328" height="620" rx="164"/></clipPath>
</defs>
<rect width="1024" height="1024" rx="220" fill="url(#bg)"/>
<path d="M0 0h1024v225C795 108 655 130 535 231S210 432 0 485z" fill="url(#wave)" opacity=".58"/>
<path d="M0 810c216-94 336-67 470 45s300 126 554-10v179H0z" fill="url(#wave)" opacity=".72"/>
<ellipse cx="510" cy="518" rx="365" ry="327" fill="#0d0b33" opacity=".6"/>
<g transform="rotate(-18 512 512)" fill="none" filter="url(#glow)"><ellipse cx="512" cy="520" rx="360" ry="205" stroke="#7f22ff" stroke-width="18" opacity=".45"/><ellipse cx="512" cy="520" rx="360" ry="205" stroke="url(#orbit)" stroke-width="9" stroke-linecap="round" stroke-dasharray="790 140"/></g>
<circle cx="199" cy="604" r="8" fill="#fff" filter="url(#glow)"/><circle cx="794" cy="358" r="7" fill="#d96cff" filter="url(#glow)"/><circle cx="813" cy="666" r="6" fill="#fff" filter="url(#glow)"/>
<g transform="rotate(-45 512 512)" filter="url(#shadow)"><g clip-path="url(#pill)"><rect x="348" y="202" width="328" height="317" fill="url(#cream)"/><rect x="348" y="505" width="328" height="317" fill="url(#red)"/><rect x="348" y="493" width="328" height="27" fill="#ff5260"/><path d="M404 258c-45 52-64 110-69 176" fill="none" stroke="#fff" stroke-opacity=".8" stroke-width="29" stroke-linecap="round"/><path d="M400 578c-31 38-44 77-41 119" fill="none" stroke="#ffd7d6" stroke-opacity=".58" stroke-width="24" stroke-linecap="round"/></g><rect x="348" y="202" width="328" height="620" rx="164" fill="none" stroke="#ffb7dc" stroke-opacity=".5" stroke-width="5"/></g>
</svg>
